<?xml version="1.0" encoding="utf-8"?>
<!-- Generator: Adobe Illustrator 15.1.0, SVG Export Plug-In . SVG Version: 6.00 Build 0)  -->
<!DOCTYPE svg PUBLIC "-//W3C//DTD SVG 1.1//EN" "http://www.w3.org/Graphics/SVG/1.1/DTD/svg11.dtd">
<svg version="1.1" id="Layer_1" xmlns="http://www.w3.org/2000/svg" xmlns:xlink="http://www.w3.org/1999/xlink" x="0px" y="0px"
	 width="123.25px" height="105.563px" viewBox="0 0 123.25 105.563" enable-background="new 0 0 123.25 105.563"
	 xml:space="preserve">
<g>
	<g>
		<g id="header">
			<g id="th">
				<path fill="#6FBC6D" d="M51.177,12.015c-2.058-1.166-5.346,0.71-7.343,4.187l-3.616,6.302c-1.319,2.615-1.14,5.731,0.536,8.141
					l0.106,0.151c1.674,2.406,3.92,4.631,4.664,5.425c0.437,0.467,0.771,1.041,0.955,1.701c0.61,2.187-0.664,4.454-2.848,5.066
					c-2.184,0.611-4.449-0.666-5.06-2.853c-0.153-0.549-0.188-1.103-0.118-1.633c0.117-0.904-0.173-2.375-1.465-3.819
					c-1.295-1.446-3.938,1.283-4.793,4.088l-0.039,0.131c-0.854,2.807-1.396,5.254-1.232,5.489c0.096,0.14,0.187,0.287,0.267,0.441
					c1.198,2.259,0.342,5.064-1.914,6.267c-2.257,1.2-5.059,0.342-6.258-1.918c-1.199-2.26-0.343-5.064,1.915-6.266
					c0.101-0.056,0.203-0.104,0.307-0.148c0.172-0.076,0.661-1.256,1.086-2.649c0.424-1.393,0.768-2.521,0.768-2.521
					c0.045-0.149,0.085-0.296,0.12-0.441l2.284-8.165l-2.443,5.021c-0.289-0.955-0.768-0.988-1.814-0.237
					c-0.632,0.453-1.678,1.346-2.188,1.711c-0.959,0.688-1.762,2.022-2.187,2.839c-0.25,0.481-0.599,0.923-1.046,1.283
					c-1.749,1.421-4.316,1.154-5.735-0.598c-1.419-1.751-1.151-4.323,0.597-5.744c0.515-0.415,1.097-0.687,1.699-0.817
					c1.027-0.224,4.521-2.36,6.626-3.87c0.377-0.27,0.692-0.523,0.95-0.763l5.621-4.273l-4.895,2.648c0,0-0.499-0.051-1.109,0.018
					c-1.791,0.198-3.637,0.451-3.985,0.896c-0.206,0.262-0.452,0.5-0.735,0.704c-1.634,1.179-3.913,0.809-5.09-0.827
					c-1.178-1.636-0.806-3.918,0.828-5.096c0.674-0.488,1.457-0.709,2.229-0.688c1.311,0.037,4.757,0.736,7.642,0.225l0.741-0.13
					c2.884-0.514,6.338-3.026,7.714-5.616c0,0,1.348-2.371,3.01-5.294s1.538-6.127-0.272-7.152l-3.285-1.857
					c-1.655-0.938-4.367-0.939-6.025-0.005L3.728,14.129c-1.657,0.937-3.014,3.261-3.014,5.166v24.947
					c0,1.906,1.356,4.231,3.014,5.168l22.615,12.769c1.657,0.936,4.369,0.934,6.025-0.005l22.537-12.76
					c1.656-0.938,3.012-3.265,3.012-5.172V19.295c0-1.905-1.355-4.232-3.012-5.168C54.904,14.127,53.235,13.18,51.177,12.015z"/>
			</g>
			<g id="mail">
				<g>
					<path fill="#B54EC7" d="M55.162,98.205L39.605,85.76c0,0-4.667,3.111-7.778,3.111c-3.111,0-7.778-3.111-7.778-3.111
						L8.492,98.205l14.001-14.002l-21.779-14v34.593h62.226V70.204L41.161,84.205L55.162,98.205z"/>
					<path fill="#B54EC7" d="M62.939,68.082H0.714c0,0,24.891,17.111,31.113,17.111C38.049,85.194,62.939,68.082,62.939,68.082z"/>
				</g>
			</g>
			<g>
				<path fill="#007AB9" d="M109.087,45.907V34.197c0-6.272-3.351-9.192-7.815-9.192c-3.604,0-5.22,1.979-6.118,3.371v-2.894h-6.791
					c0.091,1.916,0,20.428,0,20.428h6.791V34.5c0-0.609,0.043-1.22,0.224-1.656c0.49-1.219,1.605-2.482,3.48-2.482
					c2.459,0,3.44,1.873,3.44,4.619v10.928L109.087,45.907L109.087,45.907z M81.209,22.693c2.367,0,3.842-1.567,3.842-3.53
					c-0.044-2.003-1.475-3.527-3.797-3.527s-3.841,1.524-3.841,3.527c0,1.963,1.474,3.53,3.753,3.53H81.209z M84.604,45.907V25.482
					h-6.789v20.426H84.604z M62.25,1.771h60v60h-60V1.771z"/>
			</g>
		</g>
	</g>
</g>
</svg>
